<svg width="330" height="276" viewBox="0 0 330 276" fill="none" xmlns="http://www.w3.org/2000/svg">
<path d="M155.002 275.906C226.979 275.906 285.329 272.922 285.329 269.242C285.329 265.561 226.979 262.577 155.002 262.577C83.024 262.577 24.6746 265.561 24.6746 269.242C24.6746 272.922 83.024 275.906 155.002 275.906Z" fill="#F2F2F2"/>
<path d="M231.145 64.0334H229.664V23.4744C229.664 17.2486 227.191 11.2778 222.789 6.87551C218.386 2.4732 212.415 6.87375e-06 206.19 0H120.26C114.034 -1.17835e-05 108.063 2.47316 103.661 6.87546C99.2589 11.2778 96.7857 17.2486 96.7856 23.4744V245.984C96.7856 252.21 99.2588 258.181 103.661 262.583C108.063 266.985 114.034 269.458 120.26 269.458H206.19C212.415 269.458 218.386 266.985 222.788 262.583C227.191 258.181 229.664 252.21 229.664 245.984V92.9039H231.145L231.145 64.0334Z" fill="#3F3D56"/>
<path d="M224.668 23.6381V245.82C224.668 250.469 222.821 254.928 219.533 258.216C216.245 261.504 211.786 263.351 207.137 263.351H120.795C116.145 263.351 111.686 261.504 108.398 258.216C105.111 254.928 103.264 250.469 103.263 245.82V23.6381C103.264 18.9886 105.111 14.5295 108.398 11.2418C111.686 7.95408 116.145 6.10702 120.795 6.10693H131.269C130.754 7.37169 130.558 8.74354 130.698 10.1018C130.838 11.4601 131.31 12.7632 132.071 13.8964C132.833 15.0297 133.862 15.9584 135.067 16.6009C136.271 17.2433 137.616 17.5799 138.981 17.5809H188.209C189.575 17.5799 190.919 17.2433 192.124 16.6009C193.329 15.9584 194.358 15.0297 195.119 13.8964C195.881 12.7632 196.353 11.4601 196.492 10.1018C196.632 8.74353 196.436 7.37169 195.922 6.10693H207.137C211.786 6.10702 216.245 7.95408 219.533 11.2418C222.821 14.5295 224.668 18.9886 224.668 23.6381V23.6381Z" fill="white"/>
<path d="M196.852 119.442C196.278 119.742 195.695 120.026 195.101 120.293C194.56 120.538 194.011 120.767 193.454 120.982C193.25 121.06 193.043 121.138 192.835 121.215C191.196 121.81 189.512 122.274 187.8 122.604C186.952 122.77 186.093 122.901 185.223 122.996C184.505 123.078 183.779 123.136 183.046 123.17C182.524 123.196 182.002 123.207 181.476 123.207C179.394 123.208 177.316 123.014 175.271 122.626C174.737 122.53 174.215 122.415 173.693 122.289C171.168 121.684 168.724 120.782 166.411 119.601C166.203 119.497 165.996 119.386 165.789 119.279C165.481 119.116 165.182 118.946 164.882 118.768C165.026 118.568 165.182 118.372 165.341 118.179C167.073 116.032 169.239 114.274 171.696 113.02C174.153 111.766 176.847 111.044 179.602 110.901C182.358 110.758 185.112 111.196 187.686 112.189C190.26 113.182 192.596 114.705 194.542 116.661C195.217 117.339 195.843 118.064 196.415 118.831C196.567 119.031 196.712 119.234 196.852 119.442Z" fill="#9AD5CB"/>
<path d="M182.215 103.178C191.194 103.178 198.473 95.8993 198.473 86.9206C198.473 77.9418 191.194 70.6631 182.215 70.6631C173.236 70.6631 165.958 77.9418 165.958 86.9206C165.958 95.8993 173.236 103.178 182.215 103.178Z" fill="#2F2E41"/>
<path d="M186.539 103.201C192.403 99.9956 194.558 92.6437 191.352 86.78C188.147 80.9162 180.795 78.7613 174.931 81.9666C169.068 85.172 166.913 92.524 170.118 98.3877C173.323 104.251 180.675 106.406 186.539 103.201Z" fill="#A0616A"/>
<path d="M193.449 84.9729C190.684 86.8786 187.402 87.8928 184.044 87.8794C185.242 88.71 186.606 89.271 188.041 89.5239C183.577 90.4816 178.962 90.5075 174.487 89.6C173.492 89.4405 172.532 89.1109 171.649 88.6255C171.209 88.3798 170.826 88.0442 170.524 87.6407C170.222 87.2371 170.009 86.7745 169.898 86.2831C169.6 84.5842 170.924 83.0407 172.3 82.0004C174.406 80.4321 176.835 79.3515 179.41 78.8369C181.985 78.3223 184.643 78.3866 187.19 79.025C188.853 79.455 190.52 80.1814 191.6 81.5171C192.68 82.8529 193 84.9122 191.971 86.2877L193.449 84.9729Z" fill="#2F2E41"/>
<path d="M181.476 56.5627C174.209 56.5617 167.141 58.9367 161.349 63.3258C155.557 67.7149 151.359 73.8774 149.394 80.874C147.43 87.8706 147.807 95.3176 150.468 102.08C153.129 108.842 157.928 114.549 164.134 118.331L164.349 118.457C164.526 118.564 164.704 118.668 164.882 118.768C165.182 118.946 165.482 119.116 165.789 119.279C165.996 119.386 166.204 119.497 166.411 119.601C168.724 120.781 171.168 121.684 173.694 122.289C174.216 122.415 174.738 122.53 175.271 122.626C177.317 123.013 179.394 123.208 181.476 123.207C182.002 123.207 182.524 123.196 183.046 123.17C183.779 123.137 184.505 123.079 185.223 122.996C186.093 122.9 186.952 122.769 187.8 122.604C189.513 122.274 191.196 121.81 192.836 121.215C193.043 121.137 193.25 121.06 193.454 120.982C194.013 120.767 194.562 120.538 195.101 120.293C195.694 120.027 196.278 119.743 196.853 119.442C202.617 116.423 207.38 111.797 210.567 106.124C210.581 106.094 210.6 106.065 210.615 106.035C212.315 102.985 213.52 99.6845 214.188 96.2569C215.124 91.4316 214.982 86.459 213.772 81.6949C212.562 76.9309 210.313 72.4934 207.187 68.7001C204.061 64.9069 200.135 61.8517 195.69 59.7534C191.246 57.6551 186.392 56.5655 181.476 56.5627H181.476ZM210.007 105.602C209.978 105.654 209.952 105.706 209.922 105.754C206.8 111.343 202.103 115.891 196.416 118.831C195.849 119.127 195.273 119.405 194.687 119.664C194.202 119.882 193.706 120.09 193.206 120.282C192.995 120.364 192.78 120.445 192.565 120.519C191.149 121.036 189.698 121.452 188.222 121.763C187.128 121.996 186.022 122.17 184.908 122.285C184.223 122.359 183.527 122.411 182.828 122.437C182.38 122.456 181.928 122.467 181.476 122.467C179.461 122.469 177.451 122.282 175.471 121.908C174.267 121.685 173.076 121.394 171.905 121.034C170.122 120.483 168.389 119.781 166.726 118.935C166.533 118.835 166.341 118.735 166.152 118.631C165.881 118.487 165.608 118.338 165.341 118.179C165.141 118.068 164.941 117.95 164.745 117.831C164.63 117.765 164.515 117.694 164.4 117.624C158.959 114.282 154.619 109.417 151.918 103.632C149.217 97.846 148.274 91.3948 149.206 85.0782C150.138 78.7616 152.904 72.8576 157.161 68.0987C161.418 63.3398 166.979 59.9355 173.153 58.308C179.327 56.6805 185.843 56.9015 191.893 58.9436C197.942 60.9857 203.259 64.759 207.184 69.7954C211.109 74.8318 213.468 80.9096 213.97 87.2749C214.472 93.6401 213.094 100.013 210.007 105.602H210.007Z" fill="#3F3D56"/>
<path d="M173.982 70.8874C173.807 69.048 171.554 67.9156 169.791 68.4712C168.029 69.0268 166.872 70.8011 166.523 72.6154C166.354 73.3795 166.339 74.1693 166.476 74.9395C166.614 75.7097 166.902 76.4451 167.324 77.1037C168.215 78.3856 169.852 79.1856 171.379 78.8601C173.121 78.4887 174.329 76.7869 174.674 75.0388C175.02 73.2907 174.677 71.4884 174.334 69.7397L173.982 70.8874Z" fill="#2F2E41"/>
<path d="M198.782 73.5151C198.607 71.6757 196.354 70.5433 194.592 71.0989C192.83 71.6545 191.673 73.4288 191.323 75.2431C191.155 76.0072 191.139 76.7969 191.276 77.5671C191.414 78.3373 191.702 79.0728 192.125 79.7314C193.015 81.0132 194.652 81.8133 196.179 81.4878C197.922 81.1163 199.129 79.4146 199.475 77.6665C199.82 75.9184 199.477 74.1161 199.135 72.3674L198.782 73.5151Z" fill="#2F2E41"/>
<path d="M123.879 103.202C123.648 103.202 123.421 103.154 123.21 103.061C122.999 102.967 122.81 102.831 122.655 102.66L104.282 82.6175C104.074 82.3906 103.821 82.2094 103.538 82.0853C103.256 81.9612 102.952 81.8969 102.643 81.8966H5.55716C4.08381 81.8949 2.67129 81.3089 1.62948 80.2671C0.587668 79.2253 0.00165419 77.8128 0 76.3394V41.3279C0.00165321 39.8546 0.587668 38.442 1.62948 37.4002C2.67129 36.3584 4.08381 35.7724 5.55716 35.7708H131.34C132.813 35.7724 134.226 36.3584 135.267 37.4002C136.309 38.442 136.895 39.8546 136.897 41.3279V76.3394C136.895 77.8128 136.309 79.2253 135.267 80.2671C134.226 81.3089 132.813 81.8949 131.34 81.8966H127.774C127.184 81.8972 126.619 82.1317 126.202 82.5485C125.786 82.9653 125.551 83.5304 125.551 84.1199V101.534C125.552 101.87 125.451 102.199 125.261 102.476C125.072 102.754 124.802 102.967 124.488 103.087C124.294 103.163 124.087 103.202 123.879 103.202V103.202Z" fill="white"/>
<path d="M123.879 103.202C123.648 103.202 123.421 103.154 123.21 103.061C122.999 102.967 122.81 102.831 122.655 102.66L104.282 82.6175C104.074 82.3906 103.821 82.2094 103.538 82.0853C103.256 81.9612 102.952 81.8969 102.643 81.8966H5.55716C4.08381 81.8949 2.67129 81.3089 1.62948 80.2671C0.587668 79.2253 0.00165419 77.8128 0 76.3394V41.3279C0.00165321 39.8546 0.587668 38.442 1.62948 37.4002C2.67129 36.3584 4.08381 35.7724 5.55716 35.7708H131.34C132.813 35.7724 134.226 36.3584 135.267 37.4002C136.309 38.442 136.895 39.8546 136.897 41.3279V76.3394C136.895 77.8128 136.309 79.2253 135.267 80.2671C134.226 81.3089 132.813 81.8949 131.34 81.8966H127.774C127.184 81.8972 126.619 82.1317 126.202 82.5485C125.786 82.9653 125.551 83.5304 125.551 84.1199V101.534C125.552 101.87 125.451 102.199 125.261 102.476C125.072 102.754 124.802 102.967 124.488 103.087C124.294 103.163 124.087 103.202 123.879 103.202V103.202ZM5.55716 36.5112C4.28014 36.5127 3.05584 37.0206 2.15285 37.9236C1.24987 38.8266 0.741938 40.0509 0.740496 41.3279V76.3394C0.74194 77.6164 1.24987 78.8407 2.15286 79.7437C3.05584 80.6467 4.28014 81.1546 5.55716 81.1561H102.643C103.054 81.1565 103.46 81.2422 103.837 81.4076C104.213 81.573 104.55 81.8146 104.828 82.1171L123.201 102.16C123.327 102.297 123.491 102.394 123.673 102.436C123.855 102.478 124.045 102.465 124.219 102.397C124.393 102.33 124.543 102.211 124.648 102.057C124.754 101.903 124.81 101.72 124.81 101.534V84.1199C124.811 83.3341 125.123 82.5808 125.679 82.0251C126.235 81.4695 126.988 81.157 127.774 81.1561H131.34C132.617 81.1546 133.841 80.6467 134.744 79.7437C135.647 78.8407 136.155 77.6164 136.156 76.3394V41.3279C136.155 40.0509 135.647 38.8266 134.744 37.9236C133.841 37.0206 132.617 36.5127 131.34 36.5112H5.55716Z" fill="#3F3D56"/>
<path d="M13.631 51.2152C16.3166 51.2152 18.4938 49.0381 18.4938 46.3525C18.4938 43.6669 16.3166 41.4897 13.631 41.4897C10.9454 41.4897 8.76831 43.6669 8.76831 46.3525C8.76831 49.0381 10.9454 51.2152 13.631 51.2152Z" fill="#9AD5CB"/>
<path d="M125.666 73.2596H11.2303C10.8895 73.26 10.5519 73.1933 10.2369 73.0631C9.92191 72.933 9.63565 72.742 9.39449 72.5011C9.15334 72.2603 8.96203 71.9742 8.8315 71.6594C8.70097 71.3445 8.63379 71.007 8.63379 70.6662C8.63379 70.3254 8.70097 69.9879 8.8315 69.673C8.96203 69.3582 9.15334 69.0721 9.39449 68.8313C9.63565 68.5904 9.92191 68.3994 10.2369 68.2693C10.5519 68.1391 10.8895 68.0723 11.2303 68.0728H125.666C126.354 68.0736 127.013 68.3472 127.498 68.8335C127.984 69.3197 128.257 69.9789 128.257 70.6662C128.257 71.3535 127.984 72.0127 127.498 72.4989C127.013 72.9852 126.354 73.2588 125.666 73.2596V73.2596Z" fill="#E6E6E6"/>
<path d="M88.3856 62.2374H11.2303C10.8895 62.2378 10.5519 62.171 10.2369 62.0409C9.92191 61.9107 9.63565 61.7198 9.39449 61.4789C9.15334 61.238 8.96203 60.952 8.8315 60.6371C8.70097 60.3223 8.63379 59.9848 8.63379 59.644C8.63379 59.3031 8.70097 58.9656 8.8315 58.6508C8.96203 58.3359 9.15334 58.0499 9.39449 57.809C9.63565 57.5682 9.92191 57.3772 10.2369 57.2471C10.5519 57.1169 10.8895 57.0501 11.2303 57.0505H88.3856C89.0735 57.0505 89.7331 57.3238 90.2195 57.8101C90.7058 58.2965 90.9791 58.9562 90.9791 59.644C90.9791 60.3318 90.7058 60.9914 90.2195 61.4778C89.7331 61.9642 89.0735 62.2374 88.3856 62.2374Z" fill="#E6E6E6"/>
<path d="M205.512 221.937C205.198 221.816 204.929 221.603 204.739 221.326C204.549 221.048 204.448 220.719 204.45 220.383V202.969C204.449 202.38 204.215 201.815 203.798 201.398C203.381 200.981 202.816 200.747 202.226 200.746H198.66C197.187 200.744 195.775 200.158 194.733 199.116C193.691 198.075 193.105 196.662 193.103 195.189V160.177C193.105 158.704 193.691 157.291 194.733 156.25C195.775 155.208 197.187 154.622 198.66 154.62H324.443C325.916 154.622 327.329 155.208 328.371 156.25C329.412 157.291 329.998 158.704 330 160.177V195.189C329.998 196.662 329.412 198.075 328.371 199.116C327.329 200.158 325.916 200.744 324.443 200.746H227.357C227.049 200.746 226.744 200.811 226.462 200.935C226.18 201.059 225.926 201.24 225.718 201.467L207.345 221.51C207.19 221.68 207.001 221.817 206.79 221.91C206.58 222.003 206.352 222.052 206.121 222.052C205.913 222.052 205.706 222.013 205.512 221.937V221.937Z" fill="white"/>
<path d="M205.512 221.937C205.198 221.816 204.929 221.603 204.739 221.326C204.549 221.048 204.448 220.719 204.45 220.383V202.969C204.449 202.38 204.215 201.815 203.798 201.398C203.381 200.981 202.816 200.747 202.226 200.746H198.66C197.187 200.744 195.775 200.158 194.733 199.116C193.691 198.075 193.105 196.662 193.103 195.189V160.177C193.105 158.704 193.691 157.291 194.733 156.25C195.775 155.208 197.187 154.622 198.66 154.62H324.443C325.916 154.622 327.329 155.208 328.371 156.25C329.412 157.291 329.998 158.704 330 160.177V195.189C329.998 196.662 329.412 198.075 328.371 199.116C327.329 200.158 325.916 200.744 324.443 200.746H227.357C227.049 200.746 226.744 200.811 226.462 200.935C226.18 201.059 225.926 201.24 225.718 201.467L207.345 221.51C207.19 221.68 207.001 221.817 206.79 221.91C206.58 222.003 206.352 222.052 206.121 222.052C205.913 222.052 205.706 222.013 205.512 221.937V221.937ZM198.66 155.361C197.383 155.362 196.159 155.87 195.256 156.773C194.353 157.676 193.845 158.9 193.844 160.177V195.189C193.845 196.466 194.353 197.69 195.256 198.593C196.159 199.496 197.383 200.004 198.66 200.005H202.226C203.012 200.006 203.765 200.319 204.321 200.875C204.877 201.43 205.189 202.183 205.19 202.969V220.383C205.19 220.57 205.247 220.752 205.352 220.906C205.457 221.06 205.607 221.179 205.781 221.247C205.955 221.314 206.145 221.328 206.327 221.285C206.509 221.243 206.673 221.147 206.8 221.009L225.172 200.967C225.45 200.664 225.788 200.422 226.164 200.257C226.54 200.092 226.946 200.006 227.357 200.005H324.443C325.72 200.004 326.944 199.496 327.847 198.593C328.75 197.69 329.258 196.466 329.26 195.189V160.177C329.258 158.9 328.75 157.676 327.847 156.773C326.944 155.87 325.72 155.362 324.443 155.361H198.66Z" fill="#3F3D56"/>
<path d="M166.307 232.778C161.149 236.081 155.173 237.883 149.048 237.98C142.924 238.078 136.894 236.467 131.633 233.33C132.559 231.607 133.731 230.03 135.114 228.646C137.247 226.503 139.843 224.877 142.702 223.894C145.561 222.911 148.608 222.596 151.608 222.974C154.608 223.352 157.482 224.412 160.008 226.074C162.534 227.736 164.646 229.955 166.181 232.56C166.222 232.63 166.266 232.704 166.307 232.778Z" fill="#9AD5CB"/>
<path d="M147.522 215.073C156.561 215.073 163.888 207.746 163.888 198.707C163.888 189.669 156.561 182.342 147.522 182.342C138.484 182.342 131.157 189.669 131.157 198.707C131.157 207.746 138.484 215.073 147.522 215.073Z" fill="#2F2E41"/>
<path d="M159.7 210.251C162.927 204.348 160.757 196.947 154.855 193.72C148.952 190.494 141.551 192.663 138.324 198.566C135.098 204.468 137.267 211.869 143.17 215.096C149.072 218.323 156.473 216.153 159.7 210.251Z" fill="#FFB8B8"/>
<path d="M136.213 196.747C138.997 198.665 142.301 199.686 145.681 199.673C144.475 200.509 143.102 201.074 141.657 201.328C146.152 202.292 150.797 202.318 155.302 201.405C156.304 201.244 157.27 200.912 158.159 200.424C158.601 200.177 158.987 199.839 159.291 199.433C159.595 199.026 159.81 198.561 159.922 198.066C160.221 196.356 158.888 194.802 157.504 193.755C155.383 192.176 152.938 191.088 150.346 190.57C147.754 190.052 145.079 190.117 142.514 190.76C140.84 191.192 139.163 191.924 138.075 193.268C136.988 194.613 136.665 196.686 137.702 198.071L136.213 196.747Z" fill="#2F2E41"/>
<path d="M148.524 238.354C140.509 238.352 132.764 235.46 126.709 230.208C120.654 224.957 116.695 217.699 115.559 209.765C114.423 201.831 116.185 193.753 120.523 187.013C124.861 180.274 131.483 175.324 139.175 173.072C146.868 170.82 155.114 171.417 162.401 174.754C169.689 178.09 175.529 183.942 178.851 191.236C182.172 198.53 182.753 206.778 180.486 214.465C178.219 222.153 173.256 228.766 166.507 233.09C161.141 236.531 154.899 238.358 148.524 238.354V238.354ZM148.524 172.45C142.079 172.449 135.779 174.36 130.42 177.94C125.061 181.521 120.884 186.61 118.417 192.564C115.95 198.518 115.305 205.07 116.562 211.391C117.819 217.712 120.923 223.519 125.48 228.076C130.037 232.633 135.844 235.737 142.165 236.994C148.486 238.251 155.038 237.606 160.992 235.139C166.946 232.672 172.035 228.495 175.616 223.136C179.196 217.777 181.106 211.477 181.106 205.032C181.096 196.394 177.66 188.112 171.552 182.004C165.444 175.896 157.162 172.46 148.524 172.45V172.45Z" fill="#3F3D56"/>
<path d="M208.752 169.694C211.437 169.694 213.614 167.517 213.614 164.832C213.614 162.146 211.437 159.969 208.752 159.969C206.066 159.969 203.889 162.146 203.889 164.832C203.889 167.517 206.066 169.694 208.752 169.694Z" fill="#9AD5CB"/>
<path d="M320.787 191.739H206.351C206.01 191.739 205.673 191.673 205.358 191.542C205.043 191.412 204.756 191.221 204.515 190.98C204.274 190.74 204.083 190.453 203.952 190.139C203.822 189.824 203.754 189.486 203.754 189.145C203.754 188.805 203.822 188.467 203.952 188.152C204.083 187.837 204.274 187.551 204.515 187.311C204.756 187.07 205.043 186.879 205.358 186.749C205.673 186.618 206.01 186.552 206.351 186.552H320.787C321.475 186.552 322.135 186.825 322.621 187.312C323.108 187.798 323.381 188.458 323.381 189.145C323.381 189.833 323.108 190.493 322.621 190.979C322.135 191.466 321.475 191.739 320.787 191.739Z" fill="#E6E6E6"/>
<path d="M283.506 180.717H206.351C206.01 180.717 205.673 180.65 205.358 180.52C205.043 180.39 204.756 180.199 204.515 179.958C204.274 179.717 204.083 179.431 203.952 179.116C203.822 178.802 203.754 178.464 203.754 178.123C203.754 177.782 203.822 177.445 203.952 177.13C204.083 176.815 204.274 176.529 204.515 176.288C204.756 176.047 205.043 175.856 205.358 175.726C205.673 175.596 206.01 175.529 206.351 175.53H283.506C284.193 175.531 284.852 175.804 285.338 176.29C285.824 176.777 286.096 177.436 286.096 178.123C286.096 178.81 285.824 179.47 285.338 179.956C284.852 180.442 284.193 180.716 283.506 180.717V180.717Z" fill="#E6E6E6"/>
<path d="M205.355 225.251C210.366 225.251 214.428 224.801 214.428 224.244C214.428 223.688 210.366 223.237 205.355 223.237C200.345 223.237 196.283 223.688 196.283 224.244C196.283 224.801 200.345 225.251 205.355 225.251Z" fill="#F2F2F2"/>
<path d="M124.271 106.772C129.282 106.772 133.344 106.321 133.344 105.765C133.344 105.209 129.282 104.758 124.271 104.758C119.261 104.758 115.199 105.209 115.199 105.765C115.199 106.321 119.261 106.772 124.271 106.772Z" fill="#F2F2F2"/>
</svg>
