<svg width="158" height="49" viewBox="0 0 158 49" fill="none" xmlns="http://www.w3.org/2000/svg">
<path d="M16.416 4.304C18.08 4.304 19.488 4.352 20.64 4.448C21.824 4.544 22.896 4.672 23.856 4.832C24.848 4.992 25.856 5.216 26.88 5.504L26.208 12.128C25.12 12.064 24.112 12.032 23.184 12.032C22.256 12 21.264 11.984 20.208 11.984C19.152 11.952 17.888 11.936 16.416 11.936C15.104 11.936 14.064 12.208 13.296 12.752C12.56 13.296 12.048 14.256 11.76 15.632C11.472 17.008 11.328 18.944 11.328 21.44C11.328 23.936 11.472 25.872 11.76 27.248C12.048 28.624 12.56 29.584 13.296 30.128C14.064 30.672 15.104 30.944 16.416 30.944C18.752 30.944 20.688 30.912 22.224 30.848C23.792 30.784 25.36 30.672 26.928 30.512L27.6 37.088C26 37.632 24.352 38.016 22.656 38.24C20.992 38.464 18.912 38.576 16.416 38.576C12.864 38.576 10.016 38.032 7.872 36.944C5.76 35.824 4.224 34.016 3.264 31.52C2.336 29.024 1.872 25.664 1.872 21.44C1.872 17.216 2.336 13.856 3.264 11.36C4.224 8.864 5.76 7.072 7.872 5.984C10.016 4.864 12.864 4.304 16.416 4.304ZM48.8006 13.472C53.4086 13.472 55.7126 15.696 55.7126 20.144V38H46.9766V22.88C46.9766 22.112 46.8166 21.584 46.4966 21.296C46.2086 21.008 45.6806 20.864 44.9126 20.864C44.1126 20.864 43.2486 20.976 42.3206 21.2C41.4246 21.424 40.2886 21.84 38.9126 22.448L38.0486 18.416C39.7766 16.784 41.5526 15.552 43.3766 14.72C45.2326 13.888 47.0406 13.472 48.8006 13.472ZM39.8246 4.4L39.8726 12.032C39.8726 13.376 39.7766 14.672 39.5846 15.92C39.3926 17.168 39.1846 18.176 38.9606 18.944L39.8246 19.568V38H31.0886V4.4H39.8246ZM73.7273 13.472C75.8713 13.472 77.6793 13.76 79.1513 14.336C80.6553 14.912 81.7913 15.872 82.5593 17.216C83.3273 18.56 83.7113 20.416 83.7113 22.784V38H76.7513L75.5513 32.864L74.9753 32V22.736C74.9433 21.744 74.6873 21.04 74.2073 20.624C73.7593 20.176 72.9273 19.952 71.7113 19.952C70.4633 19.952 68.9273 19.984 67.1033 20.048C65.2793 20.08 63.3752 20.16 61.3913 20.288L60.6233 14.672C61.8073 14.448 63.1833 14.256 64.7513 14.096C66.3513 13.904 67.9513 13.76 69.5513 13.664C71.1513 13.536 72.5433 13.472 73.7273 13.472ZM80.2553 23.36L80.2073 27.776H69.9833C69.2473 27.808 68.7033 28 68.3513 28.352C68.0313 28.672 67.8713 29.12 67.8713 29.696V30.608C67.8713 31.216 68.0633 31.696 68.4473 32.048C68.8633 32.368 69.4713 32.528 70.2713 32.528C71.0713 32.528 71.9193 32.352 72.8153 32C73.7113 31.648 74.5913 31.168 75.4553 30.56C76.3193 29.952 77.0713 29.296 77.7113 28.592V31.664C77.4553 32.176 77.0553 32.816 76.5113 33.584C75.9993 34.352 75.3273 35.136 74.4953 35.936C73.6633 36.704 72.6553 37.344 71.4713 37.856C70.2873 38.368 68.9113 38.624 67.3433 38.624C65.9033 38.624 64.5753 38.368 63.3593 37.856C62.1433 37.344 61.1673 36.592 60.4313 35.6C59.7273 34.608 59.3753 33.36 59.3753 31.856V29.456C59.3753 27.536 60.0473 26.048 61.3913 24.992C62.7673 23.904 64.6233 23.36 66.9593 23.36H80.2553ZM99.4099 7.712V29.792C99.4099 30.496 99.5859 31.008 99.9379 31.328C100.29 31.648 100.882 31.808 101.714 31.808H104.498L105.458 37.52C104.818 37.776 104.034 37.984 103.106 38.144C102.21 38.304 101.298 38.416 100.37 38.48C99.4419 38.576 98.6419 38.624 97.9699 38.624C95.7299 38.624 93.9539 38.048 92.6419 36.896C91.3619 35.712 90.7219 34.08 90.7219 32L90.6739 7.712H99.4099ZM105.602 14.144V19.568H86.5939V14.384L91.2019 14.144H105.602ZM117.497 4.4V29.792C117.497 30.496 117.705 31.008 118.121 31.328C118.569 31.648 119.209 31.808 120.041 31.808H121.817L122.777 37.52C122.361 37.776 121.753 37.984 120.953 38.144C120.153 38.304 119.337 38.416 118.505 38.48C117.673 38.576 116.969 38.624 116.393 38.624C114.025 38.624 112.169 38.048 110.825 36.896C109.481 35.744 108.809 34.128 108.809 32.048V4.4H117.497ZM149.484 14.144L141.468 37.76C141.052 39.008 140.476 40.288 139.74 41.6C139.004 42.912 138.044 44.08 136.86 45.104C135.708 46.16 134.3 46.928 132.636 47.408C130.972 47.888 129.02 47.936 126.78 47.552L126.156 42.752C128.108 42.304 129.644 41.696 130.764 40.928C131.916 40.16 132.796 39.088 133.404 37.712L135.036 34.112C135.388 33.344 135.692 32.4 135.948 31.28C136.236 30.128 136.46 29.152 136.62 28.352L140.172 14.144H149.484ZM130.86 14.144L134.46 28.352C134.588 29.024 134.7 29.712 134.796 30.416C134.924 31.12 135.036 31.808 135.132 32.48H136.476L133.788 38H131.772C131.1 38 130.508 37.808 129.996 37.424C129.516 37.04 129.18 36.544 128.988 35.936L121.596 14.144H130.86Z" fill="#585286"/>
<circle cx="154.5" cy="34.5" r="3.5" fill="#20BEAD"/>
</svg>
